<svg width="180" height="47" viewBox="0 0 180 47" fill="none" xmlns="http://www.w3.org/2000/svg">
<mask id="path-1-outside-1" maskUnits="userSpaceOnUse" x="0" y="0" width="180" height="47" fill="black">
<rect fill="white" width="180" height="47"/>
<path d="M51.7534 23.2112H38.5075V34.3984H53.7374V36.3571H36.115V8.93527H53.6401V10.9128H38.5075V21.2525H51.7534V23.2112Z"/>
<path d="M65.4856 25.2076H56.1687V23.3054H65.4856V25.2076Z"/>
<path d="M74.6469 26.0928L71.9822 28.5788V36.3571H69.6481V7.42857H71.9822V25.9421L74.1801 23.6444L82.2327 15.9791H85.1697L76.2419 24.5672L85.9478 36.3571H83.1663L74.6469 26.0928Z"/>
<path d="M91.783 36.3571H89.4489V15.9791H91.783V36.3571ZM89.0404 10.0841C89.0404 9.65723 89.1831 9.29939 89.4683 9.0106C89.7536 8.70926 90.1426 8.55859 90.6354 8.55859C91.1281 8.55859 91.5172 8.70926 91.8024 9.0106C92.1007 9.29939 92.2498 9.65723 92.2498 10.0841C92.2498 10.511 92.1007 10.8689 91.8024 11.1576C91.5172 11.4464 91.1281 11.5908 90.6354 11.5908C90.1426 11.5908 89.7536 11.4464 89.4683 11.1576C89.1831 10.8689 89.0404 10.511 89.0404 10.0841Z"/>
<path d="M107.849 17.9001C107.357 17.8122 106.831 17.7683 106.274 17.7683C104.821 17.7683 103.59 18.1638 102.578 18.9548C101.58 19.7333 100.866 20.8696 100.439 22.3637V36.3571H98.1239V15.9791H100.4L100.439 19.2185C101.67 16.8078 103.648 15.6024 106.371 15.6024C107.019 15.6024 107.532 15.684 107.908 15.8472L107.849 17.9001Z"/>
<path d="M128.467 26.3753C128.467 29.5519 127.741 32.0756 126.289 33.9464C124.836 35.8047 122.891 36.7338 120.453 36.7338C117.575 36.7338 115.37 35.7545 113.84 33.7958V44.192H111.525V15.9791H113.684L113.801 18.8606C115.318 16.6885 117.516 15.6024 120.395 15.6024C122.911 15.6024 124.882 16.5253 126.308 18.371C127.747 20.2167 128.467 22.778 128.467 26.0551V26.3753ZM126.133 25.9798C126.133 23.3807 125.582 21.3278 124.48 19.8211C123.377 18.3145 121.841 17.5611 119.87 17.5611C118.443 17.5611 117.218 17.8938 116.194 18.5593C115.169 19.2247 114.385 20.1915 113.84 21.4597V31.2344C114.398 32.4021 115.195 33.2935 116.233 33.9088C117.27 34.524 118.495 34.8316 119.909 34.8316C121.867 34.8316 123.39 34.0783 124.48 32.5716C125.582 31.0523 126.133 28.855 126.133 25.9798Z"/>
<path d="M136.247 36.3571H133.913V15.9791H136.247V36.3571ZM133.505 10.0841C133.505 9.65723 133.647 9.29939 133.933 9.0106C134.218 8.70926 134.607 8.55859 135.1 8.55859C135.592 8.55859 135.981 8.70926 136.267 9.0106C136.565 9.29939 136.714 9.65723 136.714 10.0841C136.714 10.511 136.565 10.8689 136.267 11.1576C135.981 11.4464 135.592 11.5908 135.1 11.5908C134.607 11.5908 134.218 11.4464 133.933 11.1576C133.647 10.8689 133.505 10.511 133.505 10.0841Z"/>
<path d="M150.369 34.8316C151.989 34.8316 153.345 34.3922 154.434 33.5133C155.536 32.6218 156.132 31.4729 156.223 30.0667H158.46C158.395 31.3097 157.993 32.446 157.254 33.4756C156.515 34.4926 155.529 35.2899 154.298 35.8675C153.079 36.445 151.769 36.7338 150.369 36.7338C147.607 36.7338 145.415 35.8047 143.794 33.9464C142.186 32.0882 141.382 29.5896 141.382 26.4506V25.7726C141.382 23.7637 141.745 21.987 142.472 20.4427C143.198 18.8983 144.235 17.7055 145.584 16.8643C146.945 16.023 148.534 15.6024 150.349 15.6024C152.657 15.6024 154.557 16.2679 156.048 17.5988C157.552 18.9297 158.356 20.6812 158.46 22.8534H156.223C156.119 21.2588 155.523 19.9718 154.434 18.9925C153.357 18.0131 151.996 17.5234 150.349 17.5234C148.248 17.5234 146.615 18.258 145.448 19.727C144.293 21.196 143.716 23.2552 143.716 25.9044V26.5636C143.716 29.1627 144.293 31.1904 145.448 32.6469C146.615 34.1034 148.255 34.8316 150.369 34.8316Z"/>
<path d="M165.443 19.4256C166.208 18.2077 167.187 17.266 168.38 16.6006C169.573 15.9351 170.876 15.6024 172.29 15.6024C174.546 15.6024 176.225 16.2176 177.327 17.4481C178.429 18.6786 178.987 20.5243 179 22.9852V36.3571H176.685V22.9664C176.672 21.1458 176.27 19.7898 175.479 18.8983C174.701 18.0068 173.45 17.5611 171.725 17.5611C170.286 17.5611 169.009 18.0006 167.894 18.8795C166.791 19.7458 165.975 20.9198 165.443 22.4014V36.3571H163.128V7.42857H165.443V19.4256Z"/>
<path fill-rule="evenodd" clip-rule="evenodd" d="M15.9382 1H19.2577H24.2371L25.8969 1.80357V5.01786L24.2371 5.82143V9.03571L25.8969 9.83929V13.0536L24.2371 13.8571V17.0714L25.8969 17.875V21.0893L24.2371 21.8929V25.1071L25.8969 25.9107V29.125L24.2371 29.9286V33.1429L25.8969 33.9464V37.1607L24.2371 37.9643V41.1786L25.8969 41.9821V45.1964L24.2371 46H19.2577H15.9382H10.9588H7.63918H2.65979L1 45.1964V41.9821L2.65979 41.1786V37.9643L1 37.1607V33.9464L2.65979 33.1429V29.9286L1 29.125V25.9107L2.65979 25.1071V21.8929L1 21.0893V17.875L2.65979 17.0714V13.8571L1 13.0536V9.83929L2.65979 9.03571V5.82143L1 5.01786V1.80357L2.65979 1H7.63918H10.9588H15.9382ZM11.7887 4.21429H5.97938V9.03571H11.7887V4.21429ZM5.97938 12.25H11.7887V21.8929H5.97938V12.25ZM11.7887 31.5357H5.97938V34.75H11.7887V31.5357ZM15.1083 4.21429H20.9175V9.03571H15.1083V4.21429ZM20.9175 18.6786H15.1083V21.8929H20.9175V18.6786ZM15.1083 25.1071H20.9175V34.75H15.1083V25.1071ZM20.9175 12.25H15.1083V15.4643H20.9175V12.25ZM5.97938 25.1071H11.7887V28.3214H5.97938V25.1071ZM20.9175 37.9643H5.97938V42.7857H20.9175V37.9643Z"/>
</mask>
<path d="M51.7534 23.2112H38.5075V34.3984H53.7374V36.3571H36.115V8.93527H53.6401V10.9128H38.5075V21.2525H51.7534V23.2112Z" fill="#333333"/>
<path d="M65.4856 25.2076H56.1687V23.3054H65.4856V25.2076Z" fill="#333333"/>
<path d="M74.6469 26.0928L71.9822 28.5788V36.3571H69.6481V7.42857H71.9822V25.9421L74.1801 23.6444L82.2327 15.9791H85.1697L76.2419 24.5672L85.9478 36.3571H83.1663L74.6469 26.0928Z" fill="#333333"/>
<path d="M91.783 36.3571H89.4489V15.9791H91.783V36.3571ZM89.0404 10.0841C89.0404 9.65723 89.1831 9.29939 89.4683 9.0106C89.7536 8.70926 90.1426 8.55859 90.6354 8.55859C91.1281 8.55859 91.5172 8.70926 91.8024 9.0106C92.1007 9.29939 92.2498 9.65723 92.2498 10.0841C92.2498 10.511 92.1007 10.8689 91.8024 11.1576C91.5172 11.4464 91.1281 11.5908 90.6354 11.5908C90.1426 11.5908 89.7536 11.4464 89.4683 11.1576C89.1831 10.8689 89.0404 10.511 89.0404 10.0841Z" fill="#333333"/>
<path d="M107.849 17.9001C107.357 17.8122 106.831 17.7683 106.274 17.7683C104.821 17.7683 103.59 18.1638 102.578 18.9548C101.58 19.7333 100.866 20.8696 100.439 22.3637V36.3571H98.1239V15.9791H100.4L100.439 19.2185C101.67 16.8078 103.648 15.6024 106.371 15.6024C107.019 15.6024 107.532 15.684 107.908 15.8472L107.849 17.9001Z" fill="#333333"/>
<path d="M128.467 26.3753C128.467 29.5519 127.741 32.0756 126.289 33.9464C124.836 35.8047 122.891 36.7338 120.453 36.7338C117.575 36.7338 115.37 35.7545 113.84 33.7958V44.192H111.525V15.9791H113.684L113.801 18.8606C115.318 16.6885 117.516 15.6024 120.395 15.6024C122.911 15.6024 124.882 16.5253 126.308 18.371C127.747 20.2167 128.467 22.778 128.467 26.0551V26.3753ZM126.133 25.9798C126.133 23.3807 125.582 21.3278 124.48 19.8211C123.377 18.3145 121.841 17.5611 119.87 17.5611C118.443 17.5611 117.218 17.8938 116.194 18.5593C115.169 19.2247 114.385 20.1915 113.84 21.4597V31.2344C114.398 32.4021 115.195 33.2935 116.233 33.9088C117.27 34.524 118.495 34.8316 119.909 34.8316C121.867 34.8316 123.39 34.0783 124.48 32.5716C125.582 31.0523 126.133 28.855 126.133 25.9798Z" fill="#333333"/>
<path d="M136.247 36.3571H133.913V15.9791H136.247V36.3571ZM133.505 10.0841C133.505 9.65723 133.647 9.29939 133.933 9.0106C134.218 8.70926 134.607 8.55859 135.1 8.55859C135.592 8.55859 135.981 8.70926 136.267 9.0106C136.565 9.29939 136.714 9.65723 136.714 10.0841C136.714 10.511 136.565 10.8689 136.267 11.1576C135.981 11.4464 135.592 11.5908 135.1 11.5908C134.607 11.5908 134.218 11.4464 133.933 11.1576C133.647 10.8689 133.505 10.511 133.505 10.0841Z" fill="#333333"/>
<path d="M150.369 34.8316C151.989 34.8316 153.345 34.3922 154.434 33.5133C155.536 32.6218 156.132 31.4729 156.223 30.0667H158.46C158.395 31.3097 157.993 32.446 157.254 33.4756C156.515 34.4926 155.529 35.2899 154.298 35.8675C153.079 36.445 151.769 36.7338 150.369 36.7338C147.607 36.7338 145.415 35.8047 143.794 33.9464C142.186 32.0882 141.382 29.5896 141.382 26.4506V25.7726C141.382 23.7637 141.745 21.987 142.472 20.4427C143.198 18.8983 144.235 17.7055 145.584 16.8643C146.945 16.023 148.534 15.6024 150.349 15.6024C152.657 15.6024 154.557 16.2679 156.048 17.5988C157.552 18.9297 158.356 20.6812 158.46 22.8534H156.223C156.119 21.2588 155.523 19.9718 154.434 18.9925C153.357 18.0131 151.996 17.5234 150.349 17.5234C148.248 17.5234 146.615 18.258 145.448 19.727C144.293 21.196 143.716 23.2552 143.716 25.9044V26.5636C143.716 29.1627 144.293 31.1904 145.448 32.6469C146.615 34.1034 148.255 34.8316 150.369 34.8316Z" fill="#333333"/>
<path d="M165.443 19.4256C166.208 18.2077 167.187 17.266 168.38 16.6006C169.573 15.9351 170.876 15.6024 172.29 15.6024C174.546 15.6024 176.225 16.2176 177.327 17.4481C178.429 18.6786 178.987 20.5243 179 22.9852V36.3571H176.685V22.9664C176.672 21.1458 176.27 19.7898 175.479 18.8983C174.701 18.0068 173.45 17.5611 171.725 17.5611C170.286 17.5611 169.009 18.0006 167.894 18.8795C166.791 19.7458 165.975 20.9198 165.443 22.4014V36.3571H163.128V7.42857H165.443V19.4256Z" fill="#333333"/>
<path fill-rule="evenodd" clip-rule="evenodd" d="M15.9382 1H19.2577H24.2371L25.8969 1.80357V5.01786L24.2371 5.82143V9.03571L25.8969 9.83929V13.0536L24.2371 13.8571V17.0714L25.8969 17.875V21.0893L24.2371 21.8929V25.1071L25.8969 25.9107V29.125L24.2371 29.9286V33.1429L25.8969 33.9464V37.1607L24.2371 37.9643V41.1786L25.8969 41.9821V45.1964L24.2371 46H19.2577H15.9382H10.9588H7.63918H2.65979L1 45.1964V41.9821L2.65979 41.1786V37.9643L1 37.1607V33.9464L2.65979 33.1429V29.9286L1 29.125V25.9107L2.65979 25.1071V21.8929L1 21.0893V17.875L2.65979 17.0714V13.8571L1 13.0536V9.83929L2.65979 9.03571V5.82143L1 5.01786V1.80357L2.65979 1H7.63918H10.9588H15.9382ZM11.7887 4.21429H5.97938V9.03571H11.7887V4.21429ZM5.97938 12.25H11.7887V21.8929H5.97938V12.25ZM11.7887 31.5357H5.97938V34.75H11.7887V31.5357ZM15.1083 4.21429H20.9175V9.03571H15.1083V4.21429ZM20.9175 18.6786H15.1083V21.8929H20.9175V18.6786ZM15.1083 25.1071H20.9175V34.75H15.1083V25.1071ZM20.9175 12.25H15.1083V15.4643H20.9175V12.25ZM5.97938 25.1071H11.7887V28.3214H5.97938V25.1071ZM20.9175 37.9643H5.97938V42.7857H20.9175V37.9643Z" fill="#333333"/>
<path d="M2.65979 46.5H24.2371V45.5H2.65979V46.5ZM2.65979 1.5H24.2371V0.5H2.65979V1.5ZM24.2371 1L24.6729 0.0999353L24.4665 0H24.2371V1ZM2.65979 1V0H2.43046L2.22404 0.0999354L2.65979 1ZM2.65979 46L2.22404 46.9001L2.43046 47H2.65979V46ZM24.2371 46V47H24.4665L24.6729 46.9001L24.2371 46ZM5.97938 4.21429V3.21429H4.97938V4.21429H5.97938ZM11.7887 4.21429H12.7887V3.21429H11.7887V4.21429ZM5.97938 9.03571H4.97938V10.0357H5.97938V9.03571ZM11.7887 9.03571V10.0357H12.7887V9.03571H11.7887ZM11.7887 12.25H12.7887V11.25H11.7887V12.25ZM5.97938 12.25V11.25H4.97938V12.25H5.97938ZM11.7887 21.8929V22.8929H12.7887V21.8929H11.7887ZM5.97938 21.8929H4.97938V22.8929H5.97938V21.8929ZM5.97938 31.5357V30.5357H4.97938V31.5357H5.97938ZM11.7887 31.5357H12.7887V30.5357H11.7887V31.5357ZM5.97938 34.75H4.97938V35.75H5.97938V34.75ZM11.7887 34.75V35.75H12.7887V34.75H11.7887ZM20.9175 4.21429H21.9175V3.21429H20.9175V4.21429ZM15.1083 4.21429V3.21429H14.1083V4.21429H15.1083ZM20.9175 9.03571V10.0357H21.9175V9.03571H20.9175ZM15.1083 9.03571H14.1083V10.0357H15.1083V9.03571ZM15.1083 18.6786V17.6786H14.1083V18.6786H15.1083ZM20.9175 18.6786H21.9175V17.6786H20.9175V18.6786ZM15.1083 21.8929H14.1083V22.8929H15.1083V21.8929ZM20.9175 21.8929V22.8929H21.9175V21.8929H20.9175ZM20.9175 25.1071H21.9175V24.1071H20.9175V25.1071ZM15.1083 25.1071V24.1071H14.1083V25.1071H15.1083ZM20.9175 34.75V35.75H21.9175V34.75H20.9175ZM15.1083 34.75H14.1083V35.75H15.1083V34.75ZM15.1083 12.25V11.25H14.1083V12.25H15.1083ZM20.9175 12.25H21.9175V11.25H20.9175V12.25ZM15.1083 15.4643H14.1083V16.4643H15.1083V15.4643ZM20.9175 15.4643V16.4643H21.9175V15.4643H20.9175ZM11.7887 25.1071H12.7887V24.1071H11.7887V25.1071ZM5.97938 25.1071V24.1071H4.97938V25.1071H5.97938ZM11.7887 28.3214V29.3214H12.7887V28.3214H11.7887ZM5.97938 28.3214H4.97938V29.3214H5.97938V28.3214ZM5.97938 37.9643V36.9643H4.97938V37.9643H5.97938ZM20.9175 37.9643H21.9175V36.9643H20.9175V37.9643ZM5.97938 42.7857H4.97938V43.7857H5.97938V42.7857ZM20.9175 42.7857V43.7857H21.9175V42.7857H20.9175ZM51.7534 23.2112V24.2112H52.7534V23.2112H51.7534ZM38.5075 23.2112V22.2112H37.5075V23.2112H38.5075ZM38.5075 34.3984H37.5075V35.3984H38.5075V34.3984ZM53.7374 34.3984H54.7374V33.3984H53.7374V34.3984ZM53.7374 36.3571V37.3571H54.7374V36.3571H53.7374ZM36.115 36.3571H35.115V37.3571H36.115V36.3571ZM36.115 8.93527V7.93527H35.115V8.93527H36.115ZM53.6401 8.93527H54.6401V7.93527H53.6401V8.93527ZM53.6401 10.9128V11.9128H54.6401V10.9128H53.6401ZM38.5075 10.9128V9.91281H37.5075V10.9128H38.5075ZM38.5075 21.2525H37.5075V22.2525H38.5075V21.2525ZM51.7534 21.2525H52.7534V20.2525H51.7534V21.2525ZM65.4856 25.2076V26.2076H66.4856V25.2076H65.4856ZM56.1687 25.2076H55.1687V26.2076H56.1687V25.2076ZM56.1687 23.3054V22.3054H55.1687V23.3054H56.1687ZM65.4856 23.3054H66.4856V22.3054H65.4856V23.3054ZM74.6469 26.0928L75.4164 25.4541L74.7396 24.6387L73.9647 25.3616L74.6469 26.0928ZM71.9822 28.5788L71.3 27.8476L70.9822 28.1441V28.5788H71.9822ZM71.9822 36.3571V37.3571H72.9822V36.3571H71.9822ZM69.6481 36.3571H68.6481V37.3571H69.6481V36.3571ZM69.6481 7.42857V6.42857H68.6481V7.42857H69.6481ZM71.9822 7.42857H72.9822V6.42857H71.9822V7.42857ZM71.9822 25.9421H70.9822V28.4342L72.7048 26.6333L71.9822 25.9421ZM74.1801 23.6444L73.4906 22.9201L73.4736 22.9362L73.4575 22.9531L74.1801 23.6444ZM82.2327 15.9791V14.9791H81.8328L81.5432 15.2548L82.2327 15.9791ZM85.1697 15.9791L85.863 16.6998L87.6517 14.9791H85.1697V15.9791ZM76.2419 24.5672L75.5486 23.8466L74.8815 24.4882L75.4698 25.2028L76.2419 24.5672ZM85.9478 36.3571V37.3571H88.0663L86.7198 35.7216L85.9478 36.3571ZM83.1663 36.3571L82.3968 36.9958L82.6967 37.3571H83.1663V36.3571ZM91.783 36.3571V37.3571H92.783V36.3571H91.783ZM89.4489 36.3571H88.4489V37.3571H89.4489V36.3571ZM89.4489 15.9791V14.9791H88.4489V15.9791H89.4489ZM91.783 15.9791H92.783V14.9791H91.783V15.9791ZM89.4683 9.0106L90.1798 9.71338L90.1872 9.70581L90.1945 9.69809L89.4683 9.0106ZM91.8024 9.0106L91.0762 9.69809L91.0912 9.71388L91.1068 9.72901L91.8024 9.0106ZM91.8024 11.1576L91.1068 10.4392L91.0988 10.447L91.091 10.4549L91.8024 11.1576ZM107.849 17.9001L107.674 18.8846L108.816 19.0883L108.849 17.9285L107.849 17.9001ZM102.578 18.9548L103.193 19.7434L103.194 19.7425L102.578 18.9548ZM100.439 22.3637L99.4772 22.0884L99.4386 22.2233V22.3637H100.439ZM100.439 36.3571V37.3571H101.439V36.3571H100.439ZM98.1239 36.3571H97.1239V37.3571H98.1239V36.3571ZM98.1239 15.9791V14.9791H97.1239V15.9791H98.1239ZM100.4 15.9791L101.4 15.9671L101.388 14.9791H100.4V15.9791ZM100.439 19.2185L99.4386 19.2305L101.329 19.6735L100.439 19.2185ZM107.908 15.8472L108.907 15.8757L108.926 15.1993L108.306 14.9299L107.908 15.8472ZM126.289 33.9464L127.076 34.5622L127.078 34.5596L126.289 33.9464ZM113.84 33.7958L114.628 33.1801L112.84 30.8913V33.7958H113.84ZM113.84 44.192V45.192H114.84V44.192H113.84ZM111.525 44.192H110.525V45.192H111.525V44.192ZM111.525 15.9791V14.9791H110.525V15.9791H111.525ZM113.684 15.9791L114.684 15.9386L114.645 14.9791H113.684V15.9791ZM113.801 18.8606L112.802 18.9011L112.922 21.8657L114.621 19.4332L113.801 18.8606ZM126.308 18.371L125.517 18.9825L125.519 18.9859L126.308 18.371ZM113.84 21.4597L112.921 21.0651L112.84 21.254V21.4597H113.84ZM113.84 31.2344H112.84V31.4609L112.938 31.6653L113.84 31.2344ZM124.48 32.5716L123.67 31.9843L123.669 31.9857L124.48 32.5716ZM136.247 36.3571V37.3571H137.247V36.3571H136.247ZM133.913 36.3571H132.913V37.3571H133.913V36.3571ZM133.913 15.9791V14.9791H132.913V15.9791H133.913ZM136.247 15.9791H137.247V14.9791H136.247V15.9791ZM133.933 9.0106L134.644 9.71338L134.652 9.70581L134.659 9.69809L133.933 9.0106ZM136.267 9.0106L135.541 9.69809L135.556 9.71388L135.571 9.72901L136.267 9.0106ZM136.267 11.1576L135.571 10.4392L135.563 10.447L135.555 10.4549L136.267 11.1576ZM154.434 33.5133L155.062 34.2915L155.063 34.2908L154.434 33.5133ZM156.223 30.0667V29.0667H155.286L155.225 30.0023L156.223 30.0667ZM158.46 30.0667L159.459 30.1188L159.514 29.0667H158.46V30.0667ZM157.254 33.4756L158.063 34.0635L158.066 34.0588L157.254 33.4756ZM154.298 35.8675L153.873 34.962L153.869 34.9638L154.298 35.8675ZM143.794 33.9464L143.038 34.6008L143.041 34.6038L143.794 33.9464ZM145.584 16.8643L145.058 16.0135L145.054 16.0158L145.584 16.8643ZM156.048 17.5988L155.382 18.3448L155.386 18.3477L156.048 17.5988ZM158.46 22.8534V23.8534H159.509L159.459 22.8057L158.46 22.8534ZM156.223 22.8534L155.225 22.9183L155.286 23.8534H156.223V22.8534ZM154.434 18.9925L153.761 19.7321L153.765 19.7361L154.434 18.9925ZM145.448 19.727L144.665 19.1049L144.661 19.1092L145.448 19.727ZM145.448 32.6469L144.664 33.268L144.667 33.2722L145.448 32.6469ZM165.443 19.4256H164.443V22.8975L166.29 19.9576L165.443 19.4256ZM179 22.9852L180 22.9852L180 22.9799L179 22.9852ZM179 36.3571V37.3571H180V36.3571H179ZM176.685 36.3571H175.685V37.3571H176.685V36.3571ZM176.685 22.9664H177.685L177.685 22.9593L176.685 22.9664ZM175.479 18.8983L174.726 19.5559L174.731 19.562L175.479 18.8983ZM167.894 18.8795L168.512 19.6657L168.513 19.6649L167.894 18.8795ZM165.443 22.4014L164.502 22.0636L164.443 22.2274V22.4014H165.443ZM165.443 36.3571V37.3571H166.443V36.3571H165.443ZM163.128 36.3571H162.128V37.3571H163.128V36.3571ZM163.128 7.42857V6.42857H162.128V7.42857H163.128ZM165.443 7.42857H166.443V6.42857H165.443V7.42857ZM1 1.80357L0.564244 0.903507L0 1.17668V1.80357H1ZM1 5.01786H0V5.64475L0.564244 5.91792L1 5.01786ZM2.65979 5.82143H3.65979V5.19454L3.09555 4.92136L2.65979 5.82143ZM2.65979 9.03571L3.09555 9.93578L3.65979 9.66261V9.03571H2.65979ZM1 9.83929L0.564243 8.93922L0 9.21239V9.83929H1ZM1 13.0536H0V13.6805L0.564243 13.9536L1 13.0536ZM2.65979 13.8571H3.65979V13.2303L3.09555 12.9571L2.65979 13.8571ZM2.65979 17.0714L3.09555 17.9715L3.65979 17.6983V17.0714H2.65979ZM1 17.875L0.564243 16.9749L0 17.2481V17.875H1ZM1 21.0893H0V21.7162L0.564243 21.9893L1 21.0893ZM2.65979 21.8929H3.65979V21.266L3.09555 20.9928L2.65979 21.8929ZM2.65979 25.1071L3.09555 26.0072L3.65979 25.734V25.1071H2.65979ZM1 25.9107L0.564243 25.0106L0 25.2838V25.9107H1ZM1 29.125H0V29.7519L0.564244 30.0251L1 29.125ZM2.65979 29.9286H3.65979V29.3017L3.09555 29.0285L2.65979 29.9286ZM2.65979 33.1429L3.09555 34.0429L3.65979 33.7697V33.1429H2.65979ZM1 33.9464L0.564244 33.0464L0 33.3195V33.9464H1ZM1 37.1607H0V37.7876L0.564244 38.0608L1 37.1607ZM2.65979 37.9643H3.65979V37.3374L3.09555 37.0642L2.65979 37.9643ZM2.65979 41.1786L3.09555 42.0786L3.65979 41.8055V41.1786H2.65979ZM1 41.9821L0.564243 41.0821L0 41.3553V41.9821H1ZM1 45.1964H0V45.8233L0.564243 46.0965L1 45.1964ZM25.8969 1.80357H26.8969V1.17668L26.3327 0.903507L25.8969 1.80357ZM25.8969 5.01786L26.3327 5.91792L26.8969 5.64475V5.01786H25.8969ZM24.2371 5.82143L23.8014 4.92136L23.2371 5.19454V5.82143H24.2371ZM24.2371 9.03571H23.2371V9.66261L23.8014 9.93578L24.2371 9.03571ZM25.8969 9.83929H26.8969V9.21239L26.3327 8.93922L25.8969 9.83929ZM25.8969 13.0536L26.3327 13.9536L26.8969 13.6805V13.0536H25.8969ZM24.2371 13.8571L23.8014 12.9571L23.2371 13.2303V13.8571H24.2371ZM24.2371 17.0714H23.2371V17.6983L23.8014 17.9715L24.2371 17.0714ZM25.8969 17.875H26.8969V17.2481L26.3327 16.9749L25.8969 17.875ZM25.8969 21.0893L26.3327 21.9893L26.8969 21.7162V21.0893H25.8969ZM24.2371 21.8929L23.8014 20.9928L23.2371 21.266V21.8929H24.2371ZM24.2371 25.1071H23.2371V25.734L23.8014 26.0072L24.2371 25.1071ZM25.8969 25.9107H26.8969V25.2838L26.3327 25.0106L25.8969 25.9107ZM25.8969 29.125L26.3327 30.0251L26.8969 29.7519V29.125H25.8969ZM24.2371 29.9286L23.8014 29.0285L23.2371 29.3017V29.9286H24.2371ZM24.2371 33.1429H23.2371V33.7697L23.8014 34.0429L24.2371 33.1429ZM25.8969 33.9464H26.8969V33.3195L26.3327 33.0464L25.8969 33.9464ZM25.8969 37.1607L26.3327 38.0608L26.8969 37.7876V37.1607H25.8969ZM24.2371 37.9643L23.8014 37.0642L23.2371 37.3374V37.9643H24.2371ZM24.2371 41.1786H23.2371V41.8055L23.8014 42.0786L24.2371 41.1786ZM25.8969 41.9821H26.8969V41.3553L26.3327 41.0821L25.8969 41.9821ZM25.8969 45.1964L26.3327 46.0965L26.8969 45.8233V45.1964H25.8969ZM15.9382 2H19.2577V0H15.9382V2ZM7.63918 2H10.9588V0H7.63918V2ZM10.9588 45H7.63918V47H10.9588V45ZM19.2577 45H15.9382V47H19.2577V45ZM5.97938 5.21429H11.7887V3.21429H5.97938V5.21429ZM6.97938 9.03571V4.21429H4.97938V9.03571H6.97938ZM11.7887 8.03571H5.97938V10.0357H11.7887V8.03571ZM10.7887 4.21429V9.03571H12.7887V4.21429H10.7887ZM11.7887 11.25H5.97938V13.25H11.7887V11.25ZM12.7887 21.8929V12.25H10.7887V21.8929H12.7887ZM5.97938 22.8929H11.7887V20.8929H5.97938V22.8929ZM4.97938 12.25V21.8929H6.97938V12.25H4.97938ZM5.97938 32.5357H11.7887V30.5357H5.97938V32.5357ZM6.97938 34.75V31.5357H4.97938V34.75H6.97938ZM11.7887 33.75H5.97938V35.75H11.7887V33.75ZM10.7887 31.5357V34.75H12.7887V31.5357H10.7887ZM20.9175 3.21429H15.1083V5.21429H20.9175V3.21429ZM21.9175 9.03571V4.21429H19.9175V9.03571H21.9175ZM15.1083 10.0357H20.9175V8.03571H15.1083V10.0357ZM14.1083 4.21429V9.03571H16.1083V4.21429H14.1083ZM15.1083 19.6786H20.9175V17.6786H15.1083V19.6786ZM16.1083 21.8929V18.6786H14.1083V21.8929H16.1083ZM20.9175 20.8929H15.1083V22.8929H20.9175V20.8929ZM19.9175 18.6786V21.8929H21.9175V18.6786H19.9175ZM20.9175 24.1071H15.1083V26.1071H20.9175V24.1071ZM21.9175 34.75V25.1071H19.9175V34.75H21.9175ZM15.1083 35.75H20.9175V33.75H15.1083V35.75ZM14.1083 25.1071V34.75H16.1083V25.1071H14.1083ZM15.1083 13.25H20.9175V11.25H15.1083V13.25ZM16.1083 15.4643V12.25H14.1083V15.4643H16.1083ZM20.9175 14.4643H15.1083V16.4643H20.9175V14.4643ZM19.9175 12.25V15.4643H21.9175V12.25H19.9175ZM11.7887 24.1071H5.97938V26.1071H11.7887V24.1071ZM12.7887 28.3214V25.1071H10.7887V28.3214H12.7887ZM5.97938 29.3214H11.7887V27.3214H5.97938V29.3214ZM4.97938 25.1071V28.3214H6.97938V25.1071H4.97938ZM5.97938 38.9643H20.9175V36.9643H5.97938V38.9643ZM6.97938 42.7857V37.9643H4.97938V42.7857H6.97938ZM20.9175 41.7857H5.97938V43.7857H20.9175V41.7857ZM19.9175 37.9643V42.7857H21.9175V37.9643H19.9175ZM51.7534 22.2112H38.5075V24.2112H51.7534V22.2112ZM37.5075 23.2112V34.3984H39.5075V23.2112H37.5075ZM38.5075 35.3984H53.7374V33.3984H38.5075V35.3984ZM52.7374 34.3984V36.3571H54.7374V34.3984H52.7374ZM53.7374 35.3571H36.115V37.3571H53.7374V35.3571ZM37.115 36.3571V8.93527H35.115V36.3571H37.115ZM36.115 9.93527H53.6401V7.93527H36.115V9.93527ZM52.6401 8.93527V10.9128H54.6401V8.93527H52.6401ZM53.6401 9.91281H38.5075V11.9128H53.6401V9.91281ZM37.5075 10.9128V21.2525H39.5075V10.9128H37.5075ZM38.5075 22.2525H51.7534V20.2525H38.5075V22.2525ZM50.7534 21.2525V23.2112H52.7534V21.2525H50.7534ZM65.4856 24.2076H56.1687V26.2076H65.4856V24.2076ZM57.1687 25.2076V23.3054H55.1687V25.2076H57.1687ZM56.1687 24.3054H65.4856V22.3054H56.1687V24.3054ZM64.4856 23.3054V25.2076H66.4856V23.3054H64.4856ZM73.9647 25.3616L71.3 27.8476L72.6643 29.31L75.3291 26.824L73.9647 25.3616ZM70.9822 28.5788V36.3571H72.9822V28.5788H70.9822ZM71.9822 35.3571H69.6481V37.3571H71.9822V35.3571ZM70.6481 36.3571V7.42857H68.6481V36.3571H70.6481ZM69.6481 8.42857H71.9822V6.42857H69.6481V8.42857ZM70.9822 7.42857V25.9421H72.9822V7.42857H70.9822ZM72.7048 26.6333L74.9027 24.3356L73.4575 22.9531L71.2595 25.2509L72.7048 26.6333ZM74.8696 24.3687L82.9222 16.7034L81.5432 15.2548L73.4906 22.9201L74.8696 24.3687ZM82.2327 16.9791H85.1697V14.9791H82.2327V16.9791ZM84.4765 15.2584L75.5486 23.8466L76.9351 25.2879L85.863 16.6998L84.4765 15.2584ZM75.4698 25.2028L85.1757 36.9927L86.7198 35.7216L77.0139 23.9317L75.4698 25.2028ZM85.9478 35.3571H83.1663V37.3571H85.9478V35.3571ZM83.9358 35.7185L75.4164 25.4541L73.8774 26.7314L82.3968 36.9958L83.9358 35.7185ZM91.783 35.3571H89.4489V37.3571H91.783V35.3571ZM90.4489 36.3571V15.9791H88.4489V36.3571H90.4489ZM89.4489 16.9791H91.783V14.9791H89.4489V16.9791ZM90.783 15.9791V36.3571H92.783V15.9791H90.783ZM90.0404 10.0841C90.0404 9.90524 90.0897 9.80452 90.1798 9.71338L88.7569 8.30783C88.2764 8.79425 88.0404 9.40921 88.0404 10.0841H90.0404ZM90.1945 9.69809C90.2557 9.63344 90.3616 9.55859 90.6354 9.55859V7.55859C89.9237 7.55859 89.2515 7.78509 88.7421 8.32311L90.1945 9.69809ZM90.6354 9.55859C90.9092 9.55859 91.015 9.63344 91.0762 9.69809L92.5286 8.32311C92.0193 7.78509 91.3471 7.55859 90.6354 7.55859V9.55859ZM91.1068 9.72901C91.2044 9.8235 91.2498 9.91941 91.2498 10.0841H93.2498C93.2498 9.39505 92.997 8.77527 92.4981 8.29219L91.1068 9.72901ZM91.2498 10.0841C91.2498 10.2488 91.2044 10.3447 91.1068 10.4392L92.4981 11.8761C92.997 11.393 93.2498 10.7732 93.2498 10.0841H91.2498ZM91.091 10.4549C91.0326 10.514 90.9219 10.5908 90.6354 10.5908V12.5908C91.3344 12.5908 92.0017 12.3788 92.5138 11.8604L91.091 10.4549ZM90.6354 10.5908C90.3489 10.5908 90.2382 10.514 90.1798 10.4549L88.7569 11.8604C89.2691 12.3788 89.9364 12.5908 90.6354 12.5908V10.5908ZM90.1798 10.4549C90.0897 10.3637 90.0404 10.263 90.0404 10.0841H88.0404C88.0404 10.759 88.2764 11.374 88.7569 11.8604L90.1798 10.4549ZM108.025 16.9156C107.468 16.8163 106.884 16.7683 106.274 16.7683V18.7683C106.779 18.7683 107.245 18.8081 107.674 18.8846L108.025 16.9156ZM106.274 16.7683C104.629 16.7683 103.172 17.2207 101.962 18.1671L103.194 19.7425C104.007 19.1069 105.014 18.7683 106.274 18.7683V16.7683ZM101.963 18.1662C100.763 19.102 99.9499 20.4379 99.4772 22.0884L101.4 22.639C101.783 21.3012 102.396 20.3646 103.193 19.7434L101.963 18.1662ZM99.4386 22.3637V36.3571H101.439V22.3637H99.4386ZM100.439 35.3571H98.1239V37.3571H100.439V35.3571ZM99.1239 36.3571V15.9791H97.1239V36.3571H99.1239ZM98.1239 16.9791H100.4V14.9791H98.1239V16.9791ZM99.3997 15.9911L99.4386 19.2305L101.438 19.2065L101.4 15.9671L99.3997 15.9911ZM101.329 19.6735C101.875 18.6045 102.56 17.8515 103.366 17.3603C104.172 16.8689 105.16 16.6024 106.371 16.6024V14.6024C104.859 14.6024 103.496 14.9386 102.325 15.6525C101.154 16.3667 100.234 17.4217 99.5481 18.7634L101.329 19.6735ZM106.371 16.6024C106.953 16.6024 107.311 16.6784 107.509 16.7646L108.306 14.9299C107.752 14.6897 107.086 14.6024 106.371 14.6024V16.6024ZM106.908 15.8188L106.85 17.8717L108.849 17.9285L108.907 15.8757L106.908 15.8188ZM127.467 26.3753C127.467 29.4053 126.775 31.6893 125.499 33.3332L127.078 34.5596C128.707 32.4619 129.467 29.6985 129.467 26.3753H127.467ZM125.501 33.3306C124.245 34.937 122.595 35.7338 120.453 35.7338V37.7338C123.187 37.7338 125.427 36.6723 127.076 34.5622L125.501 33.3306ZM120.453 35.7338C117.828 35.7338 115.937 34.856 114.628 33.1801L113.052 34.4114C114.803 36.6529 117.322 37.7338 120.453 37.7338V35.7338ZM112.84 33.7958V44.192H114.84V33.7958H112.84ZM113.84 43.192H111.525V45.192H113.84V43.192ZM112.525 44.192V15.9791H110.525V44.192H112.525ZM111.525 16.9791H113.684V14.9791H111.525V16.9791ZM112.685 16.0195L112.802 18.9011L114.8 18.8202L114.684 15.9386L112.685 16.0195ZM114.621 19.4332C115.933 17.555 117.81 16.6024 120.395 16.6024V14.6024C117.223 14.6024 114.704 15.822 112.981 18.288L114.621 19.4332ZM120.395 16.6024C122.629 16.6024 124.296 17.4031 125.517 18.9824L127.099 17.7595C125.467 15.6474 123.192 14.6024 120.395 14.6024V16.6024ZM125.519 18.9859C126.776 20.5976 127.467 22.9135 127.467 26.0551H129.467C129.467 22.6426 128.718 19.8357 127.097 17.756L125.519 18.9859ZM127.467 26.0551V26.3753H129.467V26.0551H127.467ZM127.133 25.9798C127.133 23.2496 126.555 20.9644 125.287 19.2307L123.673 20.4116C124.609 21.6913 125.133 23.5118 125.133 25.9798H127.133ZM125.287 19.2307C123.984 17.4502 122.139 16.5611 119.87 16.5611V18.5611C121.543 18.5611 122.771 19.1787 123.673 20.4116L125.287 19.2307ZM119.87 16.5611C118.283 16.5611 116.861 16.9332 115.649 17.7207L116.738 19.3979C117.575 18.8545 118.604 18.5611 119.87 18.5611V16.5611ZM115.649 17.7207C114.438 18.5075 113.533 19.6396 112.921 21.0651L114.759 21.8543C115.236 20.7435 115.901 19.942 116.738 19.3979L115.649 17.7207ZM112.84 21.4597V31.2344H114.84V21.4597H112.84ZM112.938 31.6653C113.574 32.9981 114.502 34.0451 115.722 34.7689L116.743 33.0486C115.888 32.5419 115.221 31.8061 114.742 30.8035L112.938 31.6653ZM115.722 34.7689C116.939 35.4904 118.347 35.8316 119.909 35.8316V33.8316C118.644 33.8316 117.601 33.5576 116.743 33.0486L115.722 34.7689ZM119.909 35.8316C122.168 35.8316 124.001 34.9401 125.29 33.1574L123.669 31.9857C122.779 33.2165 121.566 33.8316 119.909 33.8316V35.8316ZM125.289 33.1588C126.565 31.3997 127.133 28.9606 127.133 25.9798H125.133C125.133 28.7495 124.598 30.7049 123.67 31.9843L125.289 33.1588ZM136.247 35.3571H133.913V37.3571H136.247V35.3571ZM134.913 36.3571V15.9791H132.913V36.3571H134.913ZM133.913 16.9791H136.247V14.9791H133.913V16.9791ZM135.247 15.9791V36.3571H137.247V15.9791H135.247ZM134.505 10.0841C134.505 9.90524 134.554 9.80452 134.644 9.71338L133.221 8.30783C132.741 8.79425 132.505 9.40921 132.505 10.0841H134.505ZM134.659 9.69809C134.72 9.63343 134.826 9.55859 135.1 9.55859V7.55859C134.388 7.55859 133.716 7.78509 133.206 8.32311L134.659 9.69809ZM135.1 9.55859C135.374 9.55859 135.479 9.63343 135.541 9.69809L136.993 8.32311C136.484 7.78509 135.811 7.55859 135.1 7.55859V9.55859ZM135.571 9.72901C135.669 9.82351 135.714 9.91942 135.714 10.0841H137.714C137.714 9.39503 137.461 8.77526 136.962 8.29219L135.571 9.72901ZM135.714 10.0841C135.714 10.2488 135.669 10.3447 135.571 10.4392L136.962 11.8761C137.461 11.393 137.714 10.7732 137.714 10.0841H135.714ZM135.555 10.4549C135.497 10.514 135.386 10.5908 135.1 10.5908V12.5908C135.799 12.5908 136.466 12.3788 136.978 11.8604L135.555 10.4549ZM135.1 10.5908C134.813 10.5908 134.703 10.514 134.644 10.4549L133.221 11.8604C133.733 12.3788 134.401 12.5908 135.1 12.5908V10.5908ZM134.644 10.4549C134.554 10.3637 134.505 10.263 134.505 10.0841H132.505C132.505 10.759 132.741 11.374 133.221 11.8604L134.644 10.4549ZM150.369 35.8316C152.18 35.8316 153.767 35.336 155.062 34.2915L153.806 32.735C152.922 33.4483 151.799 33.8316 150.369 33.8316V35.8316ZM155.063 34.2908C156.381 33.2248 157.112 31.8181 157.221 30.1311L155.225 30.0023C155.153 31.1278 154.691 32.0188 153.805 32.7357L155.063 34.2908ZM156.223 31.0667H158.46V29.0667H156.223V31.0667ZM157.461 30.0146C157.407 31.0628 157.071 32.0154 156.442 32.8924L158.066 34.0588C158.915 32.8766 159.384 31.5567 159.459 30.1188L157.461 30.0146ZM156.445 32.8877C155.813 33.757 154.965 34.4501 153.873 34.962L154.722 36.7729C156.094 36.1297 157.217 35.2282 158.063 34.0635L156.445 32.8877ZM153.869 34.9638C152.789 35.4755 151.627 35.7338 150.369 35.7338V37.7338C151.911 37.7338 153.368 37.4146 154.726 36.7711L153.869 34.9638ZM150.369 35.7338C147.857 35.7338 145.955 34.902 144.548 33.2891L143.041 34.6038C144.875 36.7074 147.356 37.7338 150.369 37.7338V35.7338ZM144.55 33.2921C143.139 31.6614 142.382 29.4177 142.382 26.4506H140.382C140.382 29.7615 141.233 32.515 143.038 34.6008L144.55 33.2921ZM142.382 26.4506V25.7726H140.382V26.4506H142.382ZM142.382 25.7726C142.382 23.8849 142.723 22.2579 143.377 20.8682L141.567 20.0172C140.768 21.7162 140.382 23.6424 140.382 25.7726H142.382ZM143.377 20.8682C144.027 19.4846 144.94 18.4445 146.113 17.7127L145.054 16.0158C143.53 16.9665 142.368 18.312 141.567 20.0172L143.377 20.8682ZM146.109 17.715C147.292 16.9839 148.694 16.6024 150.349 16.6024V14.6024C148.374 14.6024 146.598 15.0621 145.058 16.0135L146.109 17.715ZM150.349 16.6024C152.452 16.6024 154.102 17.2026 155.382 18.3448L156.714 16.8527C155.011 15.3332 152.862 14.6024 150.349 14.6024V16.6024ZM155.386 18.3477C156.67 19.484 157.369 20.9737 157.461 22.9011L159.459 22.8057C159.343 20.3887 158.435 18.3753 156.711 16.8498L155.386 18.3477ZM158.46 21.8534H156.223V23.8534H158.46V21.8534ZM157.221 22.7885C157.102 20.9593 156.404 19.4194 155.102 18.2488L153.765 19.7361C154.642 20.5242 155.137 21.5583 155.225 22.9183L157.221 22.7885ZM155.107 18.2528C153.822 17.0837 152.21 16.5234 150.349 16.5234V18.5234C151.782 18.5234 152.893 18.9426 153.761 19.7321L155.107 18.2528ZM150.349 16.5234C147.985 16.5234 146.046 17.3664 144.665 19.1049L146.231 20.349C147.183 19.1495 148.512 18.5234 150.349 18.5234V16.5234ZM144.661 19.1092C143.321 20.8149 142.716 23.1226 142.716 25.9044H144.716C144.716 23.3877 145.266 21.5771 146.234 20.3447L144.661 19.1092ZM142.716 25.9044V26.5636H144.716V25.9044H142.716ZM142.716 26.5636C142.716 29.2998 143.323 31.5761 144.664 33.2679L146.231 32.0259C145.264 30.8047 144.716 29.0255 144.716 26.5636H142.716ZM144.667 33.2722C146.051 34.9989 147.997 35.8316 150.369 35.8316V33.8316C148.513 33.8316 147.178 33.2079 146.228 32.0216L144.667 33.2722ZM166.29 19.9576C166.97 18.8741 167.829 18.0532 168.867 17.4739L167.893 15.7273C166.545 16.4789 165.446 17.5414 164.596 18.8937L166.29 19.9576ZM168.867 17.4739C169.906 16.8945 171.04 16.6024 172.29 16.6024V14.6024C170.712 14.6024 169.24 14.9758 167.893 15.7273L168.867 17.4739ZM172.29 16.6024C174.37 16.6024 175.732 17.1658 176.582 18.1153L178.072 16.7809C176.718 15.2695 174.722 14.6024 172.29 14.6024V16.6024ZM176.582 18.1153C177.458 19.0924 177.988 20.6574 178 22.9905L180 22.9799C179.986 20.3911 179.401 18.2647 178.072 16.7809L176.582 18.1153ZM178 22.9852V36.3571H180V22.9852H178ZM179 35.3571H176.685V37.3571H179V35.3571ZM177.685 36.3571V22.9664H175.685V36.3571H177.685ZM177.685 22.9593C177.672 21.0195 177.245 19.3818 176.227 18.2346L174.731 19.562C175.296 20.1977 175.673 21.2721 175.685 22.9735L177.685 22.9593ZM176.233 18.2408C175.191 17.0473 173.604 16.5611 171.725 16.5611V18.5611C173.296 18.5611 174.212 18.9664 174.726 19.5558L176.233 18.2408ZM171.725 16.5611C170.065 16.5611 168.569 17.0741 167.275 18.0941L168.513 19.6649C169.449 18.927 170.507 18.5611 171.725 18.5611V16.5611ZM167.276 18.0933C166.008 19.0896 165.089 20.4275 164.502 22.0636L166.384 22.7391C166.86 21.4121 167.575 20.402 168.512 19.6657L167.276 18.0933ZM164.443 22.4014V36.3571H166.443V22.4014H164.443ZM165.443 35.3571H163.128V37.3571H165.443V35.3571ZM164.128 36.3571V7.42857H162.128V36.3571H164.128ZM163.128 8.42857H165.443V6.42857H163.128V8.42857ZM164.443 7.42857V19.4256H166.443V7.42857H164.443ZM24.2371 45H19.2577V47H24.2371V45ZM15.9382 45H10.9588V47H15.9382V45ZM7.63918 45H2.65979V47H7.63918V45ZM19.2577 2H24.2371V0H19.2577V2ZM2.65979 2H7.63918V0H2.65979V2ZM10.9588 2H15.9382V0H10.9588V2ZM2.22404 0.0999354L0.564244 0.903507L1.43576 2.70364L3.09555 1.90006L2.22404 0.0999354ZM0 1.80357V5.01786H2V1.80357H0ZM0.564244 5.91792L2.22404 6.72149L3.09555 4.92136L1.43576 4.11779L0.564244 5.91792ZM2.22404 8.13565L0.564243 8.93922L1.43576 10.7394L3.09555 9.93578L2.22404 8.13565ZM0 9.83929V13.0536H2V9.83929H0ZM0.564243 13.9536L2.22404 14.7572L3.09555 12.9571L1.43576 12.1535L0.564243 13.9536ZM2.22404 16.1714L0.564243 16.9749L1.43576 18.7751L3.09555 17.9715L2.22404 16.1714ZM0 17.875V21.0893H2V17.875H0ZM0.564243 21.9893L2.22404 22.7929L3.09555 20.9928L1.43576 20.1892L0.564243 21.9893ZM2.22404 24.2071L0.564243 25.0106L1.43576 26.8108L3.09555 26.0072L2.22404 24.2071ZM0 25.9107V29.125H2V25.9107H0ZM0.564244 30.0251L2.22404 30.8286L3.09555 29.0285L1.43576 28.2249L0.564244 30.0251ZM2.22404 32.2428L0.564244 33.0464L1.43576 34.8465L3.09555 34.0429L2.22404 32.2428ZM0 33.9464V37.1607H2V33.9464H0ZM0.564244 38.0608L2.22404 38.8643L3.09555 37.0642L1.43576 36.2606L0.564244 38.0608ZM2.22404 40.2785L0.564243 41.0821L1.43576 42.8822L3.09555 42.0786L2.22404 40.2785ZM0 41.9821V45.1964H2V41.9821H0ZM0.564243 46.0965L2.22404 46.9001L3.09555 45.0999L1.43576 44.2964L0.564243 46.0965ZM23.8014 1.90006L25.4612 2.70364L26.3327 0.903507L24.6729 0.0999353L23.8014 1.90006ZM24.8969 1.80357V5.01786H26.8969V1.80357H24.8969ZM25.4612 4.11779L23.8014 4.92136L24.6729 6.72149L26.3327 5.91792L25.4612 4.11779ZM23.8014 9.93578L25.4612 10.7394L26.3327 8.93922L24.6729 8.13565L23.8014 9.93578ZM24.8969 9.83929V13.0536H26.8969V9.83929H24.8969ZM25.4612 12.1535L23.8014 12.9571L24.6729 14.7572L26.3327 13.9536L25.4612 12.1535ZM23.8014 17.9715L25.4612 18.7751L26.3327 16.9749L24.6729 16.1714L23.8014 17.9715ZM24.8969 17.875V21.0893H26.8969V17.875H24.8969ZM25.4612 20.1892L23.8014 20.9928L24.6729 22.7929L26.3327 21.9893L25.4612 20.1892ZM23.8014 26.0072L25.4612 26.8108L26.3327 25.0106L24.6729 24.2071L23.8014 26.0072ZM24.8969 25.9107V29.125H26.8969V25.9107H24.8969ZM25.4612 28.2249L23.8014 29.0285L24.6729 30.8286L26.3327 30.0251L25.4612 28.2249ZM23.8014 34.0429L25.4612 34.8465L26.3327 33.0464L24.6729 32.2428L23.8014 34.0429ZM24.8969 33.9464V37.1607H26.8969V33.9464H24.8969ZM25.4612 36.2606L23.8014 37.0642L24.6729 38.8643L26.3327 38.0608L25.4612 36.2606ZM23.8014 42.0786L25.4612 42.8822L26.3327 41.0821L24.6729 40.2785L23.8014 42.0786ZM24.8969 41.9821V45.1964H26.8969V41.9821H24.8969ZM25.4612 44.2964L23.8014 45.0999L24.6729 46.9001L26.3327 46.0965L25.4612 44.2964ZM23.2371 5.82143V9.03571H25.2371V5.82143H23.2371ZM23.2371 13.8571V17.0714H25.2371V13.8571H23.2371ZM23.2371 21.8929V25.1071H25.2371V21.8929H23.2371ZM23.2371 29.9286V33.1429H25.2371V29.9286H23.2371ZM23.2371 37.9643V41.1786H25.2371V37.9643H23.2371ZM3.65979 41.1786V37.9643H1.65979V41.1786H3.65979ZM3.65979 33.1429V29.9286H1.65979V33.1429H3.65979ZM3.65979 25.1071V21.8929H1.65979V25.1071H3.65979ZM3.65979 17.0714V13.8571H1.65979V17.0714H3.65979ZM3.65979 9.03571V5.82143H1.65979V9.03571H3.65979Z" fill="#F7F7F7" mask="url(#path-1-outside-1)"/>
</svg>
