<svg width="143" height="38" viewBox="0 0 143 38" fill="none" xmlns="http://www.w3.org/2000/svg">
<path d="M15.7534 16.2112H2.50746V27.3985H17.7374V29.3572H0.115021V1.93529H17.6401V3.91282H2.50746V14.2525H15.7534V16.2112Z" fill="#EFA921"/>
<path d="M29.4856 18.2076H20.1687V16.3054H29.4856V18.2076Z" fill="#EFA921"/>
<path d="M38.6469 19.0928L35.9821 21.5788V29.3572H33.6481V0.428589H35.9821V18.9421L38.1801 16.6444L46.2327 8.97909H49.1697L40.2419 17.5673L49.9478 29.3572H47.1663L38.6469 19.0928Z" fill="#EFA921"/>
<path d="M55.783 29.3572H53.4489V8.97909H55.783V29.3572ZM53.0404 3.08414C53.0404 2.65724 53.1831 2.2994 53.4683 2.01062C53.7536 1.70928 54.1426 1.55861 54.6354 1.55861C55.1281 1.55861 55.5172 1.70928 55.8024 2.01062C56.1007 2.2994 56.2498 2.65724 56.2498 3.08414C56.2498 3.51104 56.1007 3.86888 55.8024 4.15766C55.5172 4.44645 55.1281 4.59084 54.6354 4.59084C54.1426 4.59084 53.7536 4.44645 53.4683 4.15766C53.1831 3.86888 53.0404 3.51104 53.0404 3.08414Z" fill="#EFA921"/>
<path d="M71.8493 10.9001C71.3565 10.8122 70.8313 10.7683 70.2738 10.7683C68.8214 10.7683 67.5896 11.1638 66.5781 11.9548C65.5797 12.7333 64.8665 13.8696 64.4385 15.3637V29.3572H62.1239V8.97909H64.3996L64.4385 12.2185C65.6704 9.80777 67.6479 8.60242 70.371 8.60242C71.0194 8.60242 71.5316 8.68403 71.9076 8.84726L71.8493 10.9001Z" fill="#EFA921"/>
<path d="M92.467 19.3753C92.467 22.5519 91.7409 25.0756 90.2886 26.9464C88.8362 28.8047 86.8912 29.7338 84.4533 29.7338C81.5746 29.7338 79.3702 28.7545 77.8401 26.7958V37.192H75.5255V8.97909H77.6845L77.8012 11.8606C79.3183 9.68849 81.5163 8.60242 84.395 8.60242C86.9106 8.60242 88.8816 9.52527 90.308 11.371C91.7474 13.2167 92.467 15.7781 92.467 19.0551V19.3753ZM90.1329 18.9798C90.1329 16.3807 89.5818 14.3279 88.4796 12.8212C87.3774 11.3145 85.8408 10.5611 83.8698 10.5611C82.4434 10.5611 81.218 10.8938 80.1936 11.5593C79.1692 12.2248 78.3847 13.1916 77.8401 14.4597V24.2344C78.3977 25.4021 79.1952 26.2935 80.2325 26.9088C81.2699 27.524 82.4953 27.8316 83.9087 27.8316C85.8668 27.8316 87.3904 27.0783 88.4796 25.5716C89.5818 24.0523 90.1329 21.8551 90.1329 18.9798Z" fill="#EFA921"/>
<path d="M100.247 29.3572H97.9132V8.97909H100.247V29.3572ZM97.5048 3.08414C97.5048 2.65724 97.6474 2.2994 97.9327 2.01062C98.218 1.70928 98.607 1.55861 99.0997 1.55861C99.5925 1.55861 99.9815 1.70928 100.267 2.01062C100.565 2.2994 100.714 2.65724 100.714 3.08414C100.714 3.51104 100.565 3.86888 100.267 4.15766C99.9815 4.44645 99.5925 4.59084 99.0997 4.59084C98.607 4.59084 98.218 4.44645 97.9327 4.15766C97.6474 3.86888 97.5048 3.51104 97.5048 3.08414Z" fill="#EFA921"/>
<path d="M114.369 27.8316C115.989 27.8316 117.344 27.3922 118.434 26.5133C119.536 25.6218 120.132 24.473 120.223 23.0667H122.46C122.395 24.3097 121.993 25.446 121.254 26.4756C120.515 27.4926 119.529 28.2899 118.298 28.8675C117.079 29.445 115.769 29.7338 114.369 29.7338C111.607 29.7338 109.415 28.8047 107.794 26.9464C106.186 25.0882 105.382 22.5896 105.382 19.4506V18.7726C105.382 16.7637 105.745 14.987 106.472 13.4427C107.198 11.8983 108.235 10.7055 109.584 9.86427C110.945 9.02304 112.534 8.60242 114.349 8.60242C116.657 8.60242 118.557 9.26787 120.048 10.5988C121.552 11.9297 122.356 13.6812 122.46 15.8534H120.223C120.119 14.2588 119.523 12.9718 118.434 11.9925C117.357 11.0131 115.996 10.5235 114.349 10.5235C112.248 10.5235 110.615 11.258 109.448 12.727C108.293 14.196 107.716 16.2552 107.716 18.9045V19.5636C107.716 22.1627 108.293 24.1904 109.448 25.6469C110.615 27.1034 112.255 27.8316 114.369 27.8316Z" fill="#EFA921"/>
<path d="M129.443 12.4257C130.208 11.2077 131.187 10.2661 132.38 9.6006C133.573 8.93515 134.876 8.60242 136.289 8.60242C138.546 8.60242 140.225 9.21765 141.327 10.4481C142.429 11.6786 142.987 13.5243 143 15.9852V29.3572H140.685V15.9664C140.672 14.1458 140.27 12.7898 139.479 11.8983C138.701 11.0069 137.45 10.5611 135.725 10.5611C134.286 10.5611 133.009 11.0006 131.894 11.8795C130.791 12.7458 129.974 13.9198 129.443 15.4014V29.3572H127.128V0.428589H129.443V12.4257Z" fill="#EFA921"/>
</svg>
