<svg width="24" height="24" viewBox="0 0 24 24" fill="none" xmlns="http://www.w3.org/2000/svg">
<g clip-path="url(#clip0)">
<path d="M20.7391 2.43805L12.9272 0.134195C12.3208 -0.0447266 11.6794 -0.0447266 11.0727 0.134195L3.26095 2.43801C2.6842 2.60807 2.2814 3.14676 2.2814 3.74807V10.2175C2.2814 13.2115 3.17264 16.0944 4.85878 18.5547C6.50493 20.9567 8.79586 22.8046 11.4836 23.8984C11.6501 23.9661 11.8251 24 12 24C12.1749 24 12.3499 23.9661 12.5163 23.8984C15.2041 22.8046 17.495 20.9568 19.1412 18.5547C20.8273 16.0944 21.7185 13.2115 21.7185 10.2175V3.74812C21.7186 3.1468 21.3158 2.60807 20.7391 2.43805ZM20.6259 10.2174C20.6259 12.9899 19.8008 15.6593 18.2399 17.9368C16.7151 20.1618 14.5935 21.8733 12.1045 22.8862C12.0371 22.9137 11.9629 22.9137 11.8955 22.8862C9.4065 21.8733 7.28489 20.1619 5.76009 17.9368C4.1992 15.6593 3.37411 12.99 3.37411 10.2174V3.74807C3.37411 3.62783 3.45468 3.52012 3.57004 3.48608L11.3819 1.18223C11.5841 1.12255 11.7921 1.09279 12 1.09279C12.208 1.09279 12.416 1.1226 12.6182 1.18227L20.4301 3.48608C20.5454 3.52007 20.6259 3.62779 20.6259 3.74807V10.2174Z" fill="#333333"/>
<path d="M18.0539 4.85414L12.2317 3.13711C12.0801 3.09244 11.9199 3.09234 11.7682 3.13711L5.94622 4.85414C5.60019 4.95623 5.35846 5.27948 5.35846 5.64023V10.2174C5.35846 12.6361 6.09008 14.9559 7.47412 16.9263C8.54718 18.4541 9.98104 19.7154 11.6206 20.5741C11.7394 20.6363 11.8697 20.6674 12 20.6674C12.1304 20.6674 12.2607 20.6363 12.3795 20.5741C14.019 19.7155 15.4529 18.454 16.526 16.9263C17.91 14.956 18.6416 12.6361 18.6416 10.2174V5.64023C18.6416 5.27939 18.3999 4.95619 18.0539 4.85414ZM17.549 10.2174C17.549 12.4101 16.8861 14.5128 15.6319 16.2982C14.6864 17.6443 13.4329 18.762 12 19.5382C10.5672 18.762 9.31368 17.6443 8.36816 16.2982C7.11402 14.5128 6.45112 12.4101 6.45112 10.2174V5.84447L12 4.20797L17.549 5.84447V10.2174Z" fill="#333333"/>
</g>
<defs>
<clipPath id="clip0">
<rect width="24" height="24" fill="white"/>
</clipPath>
</defs>
</svg>
