<svg width="24" height="24" viewBox="0 0 24 24" fill="none" xmlns="http://www.w3.org/2000/svg">
<path d="M4.26562 17.933V21.1406H8.28809L8.76453 19.7115C8.89984 19.7252 9.0401 19.7344 9.1875 19.7344H13.4062C13.5538 19.7344 13.6939 19.7252 13.8294 19.7115L14.3057 21.1406H18.3281V17.9333C20.1202 16.4518 21.1406 14.309 21.1406 12C21.1406 11.7631 21.1293 11.5289 21.1084 11.2974C21.1223 11.2976 21.1364 11.2983 21.1505 11.2983C22.7058 11.2983 24 10.0378 24 8.48438V7.07812H22.5938V8.48438C22.5938 9.34186 21.7811 10.0464 20.8387 9.85822C19.9076 6.63208 16.9283 4.26562 13.4062 4.26562C13.4062 4.26562 8.86285 4.27075 8.70099 4.28082C8.19983 3.41254 7.26819 2.85938 6.23621 2.85938H2.55707L3.85309 6.40741C3.22668 7.00763 2.70062 7.71368 2.30566 8.48438H0V13.8457L2.01929 14.8301C2.49701 16.0406 3.26642 17.1033 4.26562 17.933ZM1.40625 9.89062H3.20966L3.39404 9.46948C4.12885 7.79022 5.32782 7.01422 5.50598 6.83368L4.56793 4.26562H6.23621C6.8573 4.26562 7.40643 4.6615 7.60272 5.25055L7.78619 5.8006C8.21851 5.75116 8.58929 5.67188 9.1875 5.67188H13.4062C16.8955 5.67188 19.7344 8.51074 19.7344 12C19.7344 15.5024 17.0052 17.1465 16.9219 17.2432V19.7344H15.3193L14.7971 18.1677C14.558 18.2 13.643 18.3281 13.4062 18.3281H9.1875C8.95221 18.3281 8.05334 18.2023 7.79663 18.1677L7.27441 19.7344H5.67188V17.2432C5.53894 17.1127 3.98914 16.2092 3.24298 14.0878L3.14722 13.8157L1.40625 12.9668V9.89062Z" fill="#333333"/>
<path d="M5.67188 8.48438H7.07812V9.89062H5.67188V8.48438Z" fill="#333333"/>
<path d="M11.2969 18.2856L16.8199 9.89062H12.7031V5.71436L7.18011 14.1094H11.2969V18.2856ZM9.78864 12.7031L11.2969 10.4106V11.2969H14.2114L12.7031 13.5894V12.7031H9.78864Z" fill="#333333"/>
</svg>
