<svg width="24" height="24" viewBox="0 0 24 24" fill="none" xmlns="http://www.w3.org/2000/svg">
<path d="M0.500995 4.46044C3.7949 7.25002 9.57468 12.1577 11.2734 13.688C11.5015 13.8945 11.7461 13.9995 12 13.9995C12.2534 13.9995 12.4976 13.8955 12.7251 13.6899C14.4253 12.1582 20.2051 7.25002 23.499 4.46044C23.7041 4.28709 23.7354 3.98241 23.5693 3.77048C23.1855 3.28078 22.6133 3 22 3H2.00001C1.38674 3 0.814448 3.28078 0.430683 3.77053C0.264651 3.98241 0.295917 4.28709 0.500995 4.46044Z" fill="#E6E6E6"/>
<path d="M23.71 5.97209C23.5327 5.88959 23.3242 5.91837 23.1768 6.04437C19.5239 9.14103 14.8618 13.1103 13.395 14.432C12.5717 15.1752 11.4292 15.1752 10.604 14.4311C9.0405 13.0224 3.80512 8.57169 0.823219 6.04433C0.674766 5.91833 0.465797 5.89053 0.290016 5.97204C0.113297 6.05412 0 6.23089 0 6.4257V18.9999C0 20.103 0.896953 20.9999 2.00002 20.9999H22C23.103 20.9999 24 20.103 24 18.9999V6.4257C24 6.23089 23.8867 6.05365 23.71 5.97209Z" fill="#E6E6E6"/>
</svg>
