<svg width="25" height="45" viewBox="0 0 25 45" fill="none" xmlns="http://www.w3.org/2000/svg">
<path fill-rule="evenodd" clip-rule="evenodd" d="M14.9382 3.05176e-05L18.2578 3.05176e-05L23.2372 3.05176e-05V4.82146L23.2372 45H18.2578H14.9382L9.9588 45H6.63921H1.65983L1.65983 4.82146L1.65983 3.05176e-05L6.63921 3.05176e-05L9.9588 3.05176e-05L14.9382 3.05176e-05ZM10.7887 3.21432L4.97941 3.21432L4.97941 8.03574H10.7887L10.7887 3.21432ZM4.97941 11.25H10.7887L10.7887 20.8929L4.97941 20.8929L4.97941 11.25ZM10.7887 30.5357L4.97941 30.5357L4.97941 33.75H10.7887L10.7887 30.5357ZM14.1083 3.21432L19.9176 3.21432L19.9176 8.03574L14.1083 8.03574L14.1083 3.21432ZM19.9176 17.6786H14.1083L14.1083 20.8929H19.9176V17.6786ZM14.1083 24.1072H19.9176V33.75L14.1083 33.75L14.1083 24.1072ZM19.9176 11.25L14.1083 11.25V14.4643L19.9176 14.4643V11.25ZM4.97941 24.1072L10.7887 24.1072L10.7887 27.3215L4.97941 27.3215L4.97941 24.1072ZM19.9176 36.9643L4.97941 36.9643L4.97941 41.7857L19.9176 41.7857V36.9643Z" fill="#EFA921"/>
<path d="M1.65983 3.05176e-05L3.05176e-05 0.803602L3.05176e-05 4.01789L1.65983 4.82146L1.65983 3.05176e-05Z" fill="#EFA921"/>
<path d="M1.65983 8.03574L3.05176e-05 8.83932L3.05176e-05 12.0536L1.65983 12.8572L1.65983 8.03574Z" fill="#EFA921"/>
<path d="M1.65983 16.0715L3.05176e-05 16.875L3.05176e-05 20.0893L1.65983 20.8929L1.65983 16.0715Z" fill="#EFA921"/>
<path d="M1.65983 24.1072L3.05176e-05 24.9107L3.05176e-05 28.125L1.65983 28.9286L1.65983 24.1072Z" fill="#EFA921"/>
<path d="M1.65983 32.1429L3.05176e-05 32.9465L3.05176e-05 36.1607L1.65983 36.9643L1.65983 32.1429Z" fill="#EFA921"/>
<path d="M1.65983 40.1786L3.05176e-05 40.9822L3.05176e-05 44.1965L1.65983 45L1.65983 40.1786Z" fill="#EFA921"/>
<path d="M24.8969 0.803602L23.2372 3.05176e-05V4.82146L24.8969 4.01789V0.803602Z" fill="#EFA921"/>
<path d="M24.8969 8.83932L23.2372 8.03574V12.8572L24.8969 12.0536V8.83932Z" fill="#EFA921"/>
<path d="M24.8969 16.875L23.2372 16.0715V20.8929L24.8969 20.0893V16.875Z" fill="#EFA921"/>
<path d="M24.8969 24.9107L23.2372 24.1072V28.9286L24.8969 28.125V24.9107Z" fill="#EFA921"/>
<path d="M24.8969 32.9465L23.2372 32.1429L23.2372 36.9643L24.8969 36.1607V32.9465Z" fill="#EFA921"/>
<path d="M24.8969 40.9822L23.2372 40.1786V45L24.8969 44.1965V40.9822Z" fill="#EFA921"/>
</svg>
