<svg width="24" height="24" viewBox="0 0 24 24" fill="none" xmlns="http://www.w3.org/2000/svg">
<path d="M12.3178 2.71186C12.0815 2.59205 11.7979 2.61535 11.5842 2.77205L6.12141 6.77808H0.703125C0.314812 6.77808 0 7.09289 0 7.48121V16.5188C0 16.9071 0.314812 17.2219 0.703125 17.2219H6.12141L11.5842 21.2279C11.7071 21.3181 11.8532 21.364 12.0001 21.364C12.1085 21.364 12.2175 21.339 12.3178 21.2881C12.5542 21.1683 12.7032 20.9258 12.7032 20.6609V3.33905C12.7032 3.07406 12.5542 2.83163 12.3178 2.71186ZM11.2969 19.2734L6.76739 15.9518C6.64678 15.8633 6.50114 15.8156 6.35156 15.8156H1.40625V8.18433H6.35156C6.50109 8.18433 6.64678 8.13661 6.76739 8.04821L11.2969 4.72655V19.2734Z" fill="#333333"/>
<path d="M20.9022 12.0001L23.794 9.10823C24.0686 8.83368 24.0686 8.38846 23.794 8.11387C23.5195 7.83932 23.0743 7.83932 22.7997 8.11387L19.9078 11.0057L17.0159 8.11387C16.7414 7.83932 16.2962 7.83932 16.0216 8.11387C15.747 8.38842 15.747 8.83364 16.0216 9.10823L18.9134 12.0001L16.0216 14.8919C15.747 15.1665 15.747 15.6117 16.0216 15.8863C16.1589 16.0236 16.3388 16.0922 16.5187 16.0922C16.6986 16.0922 16.8787 16.0236 17.0159 15.8863L19.9078 12.9944L22.7996 15.8863C22.9369 16.0236 23.1169 16.0922 23.2968 16.0922C23.4767 16.0922 23.6567 16.0236 23.7939 15.8863C24.0685 15.6118 24.0685 15.1665 23.7939 14.8919L20.9022 12.0001Z" fill="#333333"/>
</svg>
