<svg width="24" height="24" viewBox="0 0 24 24" fill="none" xmlns="http://www.w3.org/2000/svg">
<g clip-path="url(#clip0)">
<path d="M12 9.29032C11.7868 9.29032 11.6129 9.11643 11.6129 8.90323H10.8387C10.8387 9.40713 11.1634 9.83298 11.6129 9.99326V10.8387H12.3871V9.99326C12.8366 9.83298 13.1613 9.40713 13.1613 8.90323C13.1613 8.26304 12.6402 7.74194 12 7.74194C11.7868 7.74194 11.6129 7.56805 11.6129 7.35484C11.6129 7.14163 11.7868 6.96774 12 6.96774C12.2132 6.96774 12.3871 7.14163 12.3871 7.35484H13.1613C13.1613 6.85093 12.8366 6.42509 12.3871 6.26481V5.41936H11.6129V6.26481C11.1634 6.42509 10.8387 6.85093 10.8387 7.35484C10.8387 7.99502 11.3598 8.51613 12 8.51613C12.2132 8.51613 12.3871 8.69002 12.3871 8.90323C12.3871 9.11643 12.2132 9.29032 12 9.29032Z" fill="#333333"/>
<path d="M17.0323 20.9694V17.7329C17.0323 16.1883 16.3518 14.7352 15.1652 13.7467C14.8758 13.5055 14.7097 13.1513 14.7097 12.7742C14.7097 12.3971 14.8758 12.0429 15.1652 11.8017C16.3518 10.8132 17.0323 9.36007 17.0323 7.81546V4.57391C17.4817 4.41362 17.8065 3.98778 17.8065 3.48387V2.70968C17.8065 2.0695 17.2854 1.54839 16.6452 1.54839H7.35485C6.71466 1.54839 6.19356 2.0695 6.19356 2.70968V3.48387C6.19356 3.98872 6.51715 4.4191 6.96775 4.57901V7.81546C6.96775 9.36007 7.64819 10.8132 8.83481 11.8017C9.12419 12.0429 9.29033 12.3971 9.29033 12.7742C9.29033 13.1513 9.12419 13.5055 8.83481 13.7467C7.64819 14.7352 6.96775 16.1883 6.96775 17.7329V20.9745C6.51828 21.1348 6.19356 21.5606 6.19356 22.0645V22.8387C6.19356 23.4789 6.71466 24 7.35485 24H16.6452C17.2854 24 17.8065 23.4789 17.8065 22.8387V22.0645C17.8065 21.5597 17.4829 21.1293 17.0323 20.9694ZM9.33059 14.3415C9.79707 13.9525 10.0645 13.3815 10.0645 12.7742C10.0645 12.1669 9.79707 11.5959 9.33059 11.2073C8.32108 10.3656 7.74194 9.12929 7.74194 7.81546V4.64516H8.51614V3.87097H7.35485C7.14164 3.87097 6.96775 3.69708 6.96775 3.48387V2.70968C6.96775 2.49647 7.14164 2.32258 7.35485 2.32258H16.6452C16.8584 2.32258 17.0323 2.49647 17.0323 2.70968V3.48387C17.0323 3.69708 16.8584 3.87097 16.6452 3.87097H9.29033V4.64516H16.2581V7.81546C16.2581 9.12966 15.6789 10.3656 14.6694 11.2069C14.2029 11.5959 13.9355 12.1669 13.9355 12.7742C13.9355 13.3815 14.2029 13.9525 14.6694 14.3411C15.5625 15.0856 16.1167 16.1396 16.2333 17.2827C16.1018 17.3447 15.9793 17.409 15.8717 17.4704C15.5563 17.6509 15.283 17.8065 14.7082 17.8065C14.1334 17.8065 13.8605 17.6509 13.5446 17.4704C13.1853 17.2649 12.7776 17.0323 11.997 17.0323C11.2169 17.0323 10.8096 17.2649 10.4501 17.4704C10.1346 17.6509 9.86247 17.8065 9.28769 17.8065C8.71403 17.8065 8.44148 17.6509 8.1264 17.4704C8.01866 17.409 7.8975 17.3451 7.76671 17.2831C7.88276 16.1399 8.43713 15.086 9.33059 14.3415ZM17.0323 22.8387C17.0323 23.0519 16.8584 23.2258 16.6452 23.2258H7.35485C7.14164 23.2258 6.96775 23.0519 6.96775 22.8387V22.0645C6.96775 21.8513 7.14164 21.6774 7.35485 21.6774H14.7097V20.9032H7.74194V18.1425C8.10126 18.3476 8.50801 18.5806 9.28769 18.5806C10.0675 18.5806 10.4749 18.348 10.8344 18.1425C11.15 17.962 11.4224 17.8065 11.997 17.8065C12.5718 17.8065 12.8447 17.962 13.1605 18.1425C13.52 18.348 13.9274 18.5806 14.7082 18.5806C15.489 18.5806 15.8961 18.348 16.2558 18.1425C16.2566 18.1421 16.2573 18.1418 16.2581 18.1414V20.9032H15.4839V21.6774H16.6452C16.8584 21.6774 17.0323 21.8513 17.0323 22.0645V22.8387Z" fill="#333333"/>
<path d="M11.6129 11.6129H12.3871V12.3871H11.6129V11.6129Z" fill="#333333"/>
<path d="M11.6129 13.1613H12.3871V13.9355H11.6129V13.1613Z" fill="#333333"/>
<path d="M11.6129 14.7097H12.3871V15.4839H11.6129V14.7097Z" fill="#333333"/>
<path d="M5.41936 16.2581V11.6129H7.35485V10.8387H4.64517V17.0323H5.10806L3.87097 19.0114L2.63389 17.0323H3.09678V12.3871H2.32259V16.2581H1.23709L3.87097 20.4725L6.50486 16.2581H5.41936Z" fill="#333333"/>
<path d="M0 0V11.6129H3.87097V10.8387H3.06578C2.89548 9.65455 1.95835 8.71743 0.774194 8.54713V3.06578C1.95835 2.89548 2.89548 1.95835 3.06578 0.774193H20.9342C21.1045 1.95835 22.0416 2.89548 23.2258 3.06578V8.54713C22.0416 8.7178 21.1045 9.65455 20.9342 10.8387H20.129V11.6129H24V0H0ZM2.28346 10.8387H0.774194V9.32945C1.53138 9.48387 2.12903 10.0815 2.28346 10.8387ZM0.774194 2.28345V0.774193H2.28346C2.12903 1.53138 1.53138 2.12903 0.774194 2.28345ZM21.7165 0.774193H23.2258V2.28345C22.4686 2.12903 21.871 1.53138 21.7165 0.774193V0.774193ZM21.7165 10.8387C21.871 10.0815 22.4686 9.48387 23.2258 9.32945V10.8387H21.7165Z" fill="#333333"/>
<path d="M21.6774 12.3871H20.9032V18.1936H21.3661L20.129 20.1727L18.8919 18.1936H19.3548V10.8387H16.6452V11.6129H18.5806V17.4194H17.4951L20.129 21.6338L22.7629 17.4194H21.6774V12.3871Z" fill="#333333"/>
</g>
<defs>
<clipPath id="clip0">
<rect width="24" height="24" fill="white"/>
</clipPath>
</defs>
</svg>
